<?xml version="1.0" encoding="UTF-8"?>
<svg xmlns="http://www.w3.org/2000/svg" xmlns:xlink="http://www.w3.org/1999/xlink" viewBox="0 0 24 24" width="24px" height="24px">
<g id="surface4199682">
<path style=" stroke:none;fill-rule:nonzero;fill:rgb(24.313726%,29.803923%,39.215687%);fill-opacity:1;" d="M 9 1.082031 C 4.636719 1.082031 1.082031 4.636719 1.082031 9 C 1.082031 13.363281 4.636719 16.917969 9 16.917969 C 10.890625 16.917969 12.625 16.25 13.988281 15.140625 L 19.550781 22.105469 C 19.550781 22.105469 20.765625 22.289062 21.523438 21.5 C 22.285156 20.707031 22.105469 19.550781 22.105469 19.550781 L 15.140625 13.988281 C 16.25 12.625 16.917969 10.890625 16.917969 9 C 16.917969 4.636719 13.363281 1.082031 9 1.082031 Z M 9 2.667969 C 12.507812 2.667969 15.332031 5.492188 15.332031 9 C 15.332031 12.507812 12.507812 15.332031 9 15.332031 C 5.492188 15.332031 2.667969 12.507812 2.667969 9 C 2.667969 5.492188 5.492188 2.667969 9 2.667969 Z M 9 2.667969 "/>
</g>
</svg>
